<!-- <div>Icons made by <a href="https://www.flaticon.com/authors/iconixar" title="iconixar">iconixar</a> from <a href="https://www.flaticon.com/" title="Flaticon">www.flaticon.com</a></div> -->
<svg id="Flat" height="512" viewBox="0 0 512 512" width="512" xmlns="http://www.w3.org/2000/svg"><path d="m344 408c-.52 0-1 .12-1.517.153a23.888 23.888 0 0 0 -38.648-25.788 23.819 23.819 0 0 0 -39.835-16.136 23.819 23.819 0 0 0 -39.835 16.136 23.858 23.858 0 0 0 -38.648 25.788c-.512-.033-1-.153-1.517-.153a24 24 0 0 0 -24 24v56h208v-56a24 24 0 0 0 -24-24z" fill="#2e9163"/><path d="m444.286 178.255a55.985 55.985 0 0 0 -24.479-86.639 48 48 0 1 0 -87.614 0 55.985 55.985 0 0 0 -24.479 86.639 60 60 0 1 0 68.286 87.663 60 60 0 1 0 68.286-87.663z" fill="#3dc285"/><path d="m204.286 178.255a55.985 55.985 0 0 0 -24.479-86.639 48 48 0 1 0 -87.614 0 55.985 55.985 0 0 0 -24.479 86.639 60 60 0 1 0 68.286 87.663 60 60 0 1 0 68.286-87.663z" fill="#3dc285"/><path d="m413.657 157.657a8 8 0 0 0 -11.314-11.314l-18.343 18.343v-36.686a8 8 0 0 0 -16 0v92.686l-18.343-18.343a8 8 0 0 0 -11.314 11.314l29.657 29.657v236.686a8 8 0 0 0 16 0v-292.686z" fill="#7a4830"/><path d="m162.343 146.343-18.343 18.343v-36.686a8 8 0 0 0 -16 0v92.686l-18.343-18.343a8 8 0 0 0 -11.314 11.314l29.657 29.657v236.686a8 8 0 0 0 16 0v-292.686l29.657-29.657a8 8 0 0 0 -11.314-11.314z" fill="#7a4830"/><g fill="#3dc285"><path d="m464 488a24 24 0 0 0 0-48c-.52 0-1 .12-1.517.153a23.888 23.888 0 0 0 -38.648-25.788 23.819 23.819 0 0 0 -39.835-16.136 23.819 23.819 0 0 0 -39.835 16.136 23.858 23.858 0 0 0 -38.648 25.788c-.512-.033-1-.153-1.517-.153a24 24 0 0 0 0 48z"/><path d="m208 488a24 24 0 0 0 0-48c-.52 0-1 .12-1.517.153a23.888 23.888 0 0 0 -38.648-25.788 23.819 23.819 0 0 0 -39.835-16.136 23.819 23.819 0 0 0 -39.835 16.136 23.858 23.858 0 0 0 -38.648 25.788c-.512-.033-1-.153-1.517-.153a24 24 0 0 0 0 48z"/></g></svg>
