<?xml version="1.0" encoding="iso-8859-1"?>
<!-- Generator: Adobe Illustrator 19.0.0, SVG Export Plug-In . SVG Version: 6.00 Build 0)  -->
<svg version="1.1" id="Capa_1" xmlns="http://www.w3.org/2000/svg" xmlns:xlink="http://www.w3.org/1999/xlink" x="0px" y="0px"
	 viewBox="0 0 512 512" style="enable-background:new 0 0 512 512;" xml:space="preserve">
<path style="fill:#D63030;" d="M504.373,143.91v224.182c0,22.3-9.355,42.516-24.334,56.925
	c-14.236,13.708-33.557,22.158-54.749,22.158H86.71c-43.492,0-79.083-35.591-79.083-79.083V143.91
	c0-37.533,26.51-69.189,61.725-77.151c5.593-1.261,11.399-1.932,17.358-1.932H425.29C468.783,64.827,504.373,100.418,504.373,143.91
	z"/>
<path style="fill:#F44545;" d="M504.373,143.91v224.182c0,22.3-9.355,42.516-24.334,56.925c-5.583,1.261-11.389,1.932-17.348,1.932
	H124.121c-43.502,0-79.093-35.591-79.093-79.083V123.684c0-22.29,9.345-42.506,24.324-56.925c5.593-1.261,11.399-1.932,17.358-1.932
	H425.29C468.783,64.827,504.373,100.418,504.373,143.91z"/>
<path style="fill:#D2D2D7;" d="M371.599,205.502c0,56.762-40.919,103.976-94.865,113.738c-6.722,1.22-13.657,1.861-20.734,1.861
	c-63.84,0-115.599-51.759-115.599-115.599S192.16,89.903,256,89.903c7.077,0,14.013,0.641,20.734,1.861
	C330.68,101.526,371.599,148.74,371.599,205.502z"/>
<path style="fill:#EBEBF0;" d="M371.599,205.502c0,56.762-40.919,103.976-94.865,113.738
	c-53.956-9.762-94.875-56.976-94.875-113.738s40.919-103.976,94.875-113.738C330.68,101.526,371.599,148.74,371.599,205.502z"/>
<path style="fill:#1B87B3;" d="M229.056,259.363c-0.351,0-0.703-0.012-1.055-0.039c-3.896-0.286-7.511-2.134-10.022-5.125
	l-34.768-41.419c-5.135-6.118-4.339-15.24,1.779-20.375c6.117-5.135,15.239-4.338,20.374,1.779l25.204,30.025l77.54-68.913
	c5.97-5.306,15.111-4.767,20.417,1.203c5.306,5.97,4.767,15.111-1.203,20.417l-88.659,78.795
	C236.006,258.072,232.584,259.363,229.056,259.363z"/>
<path d="M456.627,432.259c-9.822,4.836-20.365,7.289-31.337,7.289H86.711c-39.402,0-71.457-32.055-71.457-71.457v-224.18
	c0-23.104,11.364-44.93,30.4-58.386c3.439-2.431,4.257-7.19,1.824-10.629c-2.431-3.44-7.189-4.257-10.63-1.825
	C13.775,89.38,0,115.863,0,143.911v224.179C0,415.902,38.898,454.8,86.711,454.8h338.578c13.329,0,26.14-2.98,38.076-8.858
	c3.779-1.861,5.334-6.433,3.473-10.212C464.976,431.952,460.405,430.398,456.627,432.259z"/>
<path d="M425.289,57.2H86.71c-6.59,0.001-13.167,0.754-19.545,2.237c-4.102,0.954-6.654,5.053-5.701,9.155
	c0.954,4.103,5.05,6.654,9.156,5.701c5.249-1.22,10.663-1.84,16.092-1.841h338.578c39.402,0,71.457,32.055,71.457,71.457v224.179
	c0,17.541-6.492,34.443-18.28,47.591c-2.812,3.136-2.548,7.958,0.588,10.77c3.13,2.807,7.951,2.555,10.77-0.587
	c14.3-15.951,22.176-36.468,22.176-57.773V143.911C512,96.099,473.102,57.2,425.289,57.2z"/>
<path d="M107.973,410.591c-11.254,0-14.233-8.495-18.757-8.495c-3.421,0-6.289,4.634-6.289,7.723c0,6.4,11.034,13.682,25.488,13.682
	c15.227,0,26.26-8.165,26.26-23.944c0-28.577-35.418-23.833-35.418-37.515c0-5.296,4.524-8.495,12.468-8.495
	c9.269,0,11.806,4.193,15.227,4.193c3.972,0,5.737-5.075,5.737-7.613c0-7.282-14.454-8.827-20.964-8.827
	c-12.689,0-26.812,5.626-26.812,22.066c0,26.15,35.418,21.075,35.418,37.626C120.331,407.613,114.592,410.591,107.973,410.591z"/>
<path d="M143.613,367.118v30.784c0,18.426,11.255,25.267,25.82,25.267c14.564,0,25.929-6.842,25.929-25.267v-30.784
	c0-18.426-11.365-25.267-25.929-25.267C154.868,341.852,143.613,348.692,143.613,367.118z M181.018,367.118v30.784
	c0,8.716-4.413,12.689-11.585,12.689c-7.283,0-11.476-3.972-11.476-12.689v-30.784c0-8.717,4.193-12.689,11.476-12.689
	C176.605,354.431,181.018,358.402,181.018,367.118z"/>
<path d="M207.613,346.265v71.72c0,2.978,3.089,4.523,6.289,4.523h34.977c2.869,0,4.302-3.199,4.302-6.289
	c0-3.199-1.434-6.289-4.302-6.289h-26.922v-63.665C221.957,340.363,207.613,340.334,207.613,346.265z"/>
<path d="M277.57,423.171c4.193,0,8.275-1.546,9.268-4.855c22.46-73.63,21.405-69.884,21.405-70.505
	c0-5.216-12.42-8.725-13.903-3.089l-16.771,59.803l-16.881-59.803c-0.552-2.097-2.427-2.869-4.855-2.869
	c-3.862,0-9.047,2.427-9.047,5.958c0,0.221,0.11,0.662,0.221,1.103l21.296,69.402C269.406,421.625,273.377,423.171,277.57,423.171z"
	/>
<path d="M361.43,354.431c2.869,0,4.524-2.979,4.524-6.4c0-2.979-1.434-6.179-4.524-6.179h-39.279c-3.2,0-6.289,1.546-6.289,4.524
	v71.609c0,2.978,3.089,4.523,6.289,4.523h39.279c3.09,0,4.524-3.199,4.524-6.179c0-3.421-1.654-6.399-4.524-6.399h-31.225v-22.178
	h16.771c6.1,0,5.928-11.255,0-11.255h-16.771v-22.066H361.43z"/>
<path d="M374.344,418.095c0,2.316,2.538,4.413,6.289,4.413h19.529c14.565,0,25.929-6.842,25.929-25.267v-30.122
	c0-18.426-11.365-25.267-25.929-25.267h-19.529c-3.751,0-6.289,2.097-6.289,4.413V418.095z M388.688,354.431h11.474
	c7.283,0,11.585,4.083,11.585,12.689v30.122c0,8.606-4.302,12.69-11.585,12.69h-11.474V354.431z"/>
<path d="M243.728,261.412l88.66-78.795c14.575-12.954,6.331-37.397-13.374-38.56c-5.887-0.342-11.562,1.62-15.972,5.54
	l-71.676,63.702l-20.161-24.017c-3.793-4.518-9.119-7.29-14.997-7.804c-19.432-1.689-31.529,21.087-18.838,36.207l34.769,41.419
	C220.085,268.567,234.378,269.722,243.728,261.412z M194.88,196.674c4.942,0.432,3.985,2.654,29.845,32.441
	c2.778,3.309,7.72,3.629,10.908,0.797c79.953-70.111,77.128-70.923,82.482-70.629c6.072,0.36,8.663,7.912,4.139,11.931
	c-91.703,80.528-88.304,80.921-93.697,80.503c-5.112-0.371-3.296-1.832-39.507-43.839
	C185.144,203.222,188.849,196.143,194.88,196.674z"/>
<path d="M256,82.281c-103.238,0-159.628,119.347-97.025,199.197c2.599,3.315,7.394,3.894,10.708,1.295
	c3.315-2.599,3.896-7.394,1.297-10.708C115.841,201.74,166.044,97.534,256,97.534c59.535,0,107.97,48.435,107.97,107.97
	c0,89.145-102.19,139.309-172.683,86.438c-3.37-2.526-8.15-1.844-10.677,1.525c-2.527,3.369-1.844,8.15,1.525,10.677
	c80.433,60.326,197.088,3.13,197.088-98.641C379.224,137.558,323.946,82.281,256,82.281z"/>
<g>
</g>
<g>
</g>
<g>
</g>
<g>
</g>
<g>
</g>
<g>
</g>
<g>
</g>
<g>
</g>
<g>
</g>
<g>
</g>
<g>
</g>
<g>
</g>
<g>
</g>
<g>
</g>
<g>
</g>
</svg>
