<svg height="512" viewBox="0 0 512 512" width="512" xmlns="http://www.w3.org/2000/svg"><g id="UI_design" data-name="UI design"><path d="m496 120v192h-480v-192a16 16 0 0 1 16-16h448a16 16 0 0 1 16 16z" fill="#1a6fb0"/><path d="m496 312v32a16 16 0 0 1 -16 16h-448a16 16 0 0 1 -16-16v-32z" fill="#e0e0e2"/><path d="m304 392h-96l8-32h80z" fill="#57565c"/><path d="m176 392h160v24h-160z" fill="#e0e0e2"/><path d="m216 136h80v144h-80z" fill="#e0e0e2"/><path d="m112 136h80v144h-80z" fill="#ff5023"/><path d="m328 136h72v72h-72z" fill="#ffda44"/><path d="m480 96h-448a24.027 24.027 0 0 0 -24 24v224a24.027 24.027 0 0 0 24 24h173.754l-4 16h-25.754a8 8 0 0 0 -8 8v24a8 8 0 0 0 8 8h160a8 8 0 0 0 8-8v-24a8 8 0 0 0 -8-8h-25.754l-4-16h173.754a24.027 24.027 0 0 0 24-24v-224a24.027 24.027 0 0 0 -24-24zm-456 24a8.009 8.009 0 0 1 8-8h448a8.009 8.009 0 0 1 8 8v184h-464zm304 288h-144v-8h144zm-34.246-24h-75.508l4-16h67.508zm194.246-40a8.009 8.009 0 0 1 -8 8h-448a8.009 8.009 0 0 1 -8-8v-24h464z"/><path d="m56 344h40a8 8 0 0 0 0-16h-40a8 8 0 0 0 0 16z"/><path d="m120 344h8a8 8 0 0 0 0-16h-8a8 8 0 0 0 0 16z"/><path d="m296 128h-80a8 8 0 0 0 -8 8v144a8 8 0 0 0 8 8h80a8 8 0 0 0 8-8v-144a8 8 0 0 0 -8-8zm-8 144h-64v-128h64z"/><path d="m192 128h-80a8 8 0 0 0 -8 8v144a8 8 0 0 0 8 8h80a8 8 0 0 0 8-8v-144a8 8 0 0 0 -8-8zm-8 144h-64v-128h64z"/><path d="m400 128h-72a8 8 0 0 0 -8 8v72a8 8 0 0 0 8 8h72a8 8 0 0 0 8-8v-72a8 8 0 0 0 -8-8zm-8 72h-56v-56h56z"/><path d="m400 224h-72a8 8 0 0 0 0 16h72a8 8 0 0 0 0-16z"/><path d="m352 248h-24a8 8 0 0 0 0 16h24a8 8 0 0 0 0-16z"/><path d="m384 248h-8a8 8 0 0 0 0 16h8a8 8 0 0 0 0-16z"/><path d="m344 272h-16a8 8 0 0 0 0 16h16a8 8 0 0 0 0-16z"/></g></svg>