<!-- <div>Icônes conçues par <a href="https://www.freepik.com" title="Freepik">Freepik</a> from <a href="https://www.flaticon.com/fr/" title="Flaticon">www.flaticon.com</a></div> -->
<svg enable-background="new 0 0 512 512" viewBox="0 0 512 512" xmlns="http://www.w3.org/2000/svg">
  <path d="m466 512h-360v-92h270v-360h90z" fill="#e1e6f0"/>
  <path d="m376 420h-90v92h180v-452h-90z" fill="#cfd7e6"/>
  <path d="m406 450h-360v-450h360z" fill="#f3f5f9"/>
  <path d="m226 0h180v450h-180z" fill="#e1e6f0"/>
  <path d="m181 150c-24.814 0-45-20.186-45-45s20.186-45 45-45 45 20.186 45 45-20.186 45-45 45z" fill="#ffd9b3"/>
  <path d="m256 240h-150v-15c0-41.353 33.633-75 75-75s75 33.647 75 75z" fill="#59c8ff"/>
  <path d="m286 150h60v30h-60z" fill="#b8c4d9"/>
  <path d="m286 90h60v30h-60z" fill="#b8c4d9"/>
  <path d="m286 210h60v30h-60z" fill="#b8c4d9"/>
  <path d="m106 270h240v30h-240z" fill="#cfd7e6"/>
  <path d="m106 330h240v30h-240z" fill="#cfd7e6"/>
  <path d="m226 330h120v30h-120z" fill="#b8c4d9"/>
  <path d="m226 270h120v30h-120z" fill="#b8c4d9"/>
  <path d="m256 240v-15c0-41.353-33.633-75-75-75v90z" fill="#4da6ff"/>
  <path d="m226 105c0-24.814-20.186-45-45-45v90c24.814 0 45-20.186 45-45z" fill="#fb9"/>
</svg>
