<svg xmlns="http://www.w3.org/2000/svg"  viewBox="0 0 64 64" width="64px" height="64px"><radialGradient id="K5EJoz8rMMSTeQnHnlwMIa" cx="32" cy="32" r="29.606" gradientUnits="userSpaceOnUse" spreadMethod="reflect"><stop offset="0" stop-color="#efdcb1"/><stop offset="0" stop-color="#f2e0bb"/><stop offset=".011" stop-color="#f2e0bc"/><stop offset=".362" stop-color="#f9edd2"/><stop offset=".699" stop-color="#fef4df"/><stop offset="1" stop-color="#fff7e4"/></radialGradient><path fill="url(#K5EJoz8rMMSTeQnHnlwMIa)" d="M6,4L6,4c0-2.209,1.791-4,4-4h0c2.209,0,4,1.791,4,4v0c0,2.209-1.791,4-4,4h0 C7.791,8,6,6.209,6,4z M54.5,64L54.5,64c1.933,0,3.5-1.567,3.5-3.5v0c0-1.933-1.567-3.5-3.5-3.5h0c-1.933,0-3.5,1.567-3.5,3.5v0 C51,62.433,52.567,64,54.5,64z M54.5,25h-7c-1.933,0-3.5,1.567-3.5,3.5v0c0,1.933,1.567,3.5,3.5,3.5H49c2.209,0,4,1.791,4,4v0 c0,2.209-1.791,4-4,4h-3v0.5c0,1.381,1.119,2.5,2.5,2.5H48c2.209,0,4,1.791,4,4v0c0,2.209-1.791,4-4,4h-6c-1.657,0-3,1.343-3,3v0 c0,1.657,1.343,3,3,3h2.5c1.933,0,3.5,1.567,3.5,3.5v0c0,1.933-1.561,3.5-3.494,3.5c-7.575,0-25.44,0-33.014-0.001 C9.56,63.999,8,62.432,8,60.5v0c0-1.932,1.566-3.498,3.498-3.499l3.002-0.001c1.933,0,3.5-1.568,3.5-3.501v0 c0-1.933-1.567-3.5-3.5-3.5H9c-2.209,0-4-1.791-4-4v0c0-2.209,1.791-4,4-4h8v-5c0,0-3.707,0-7.001,0C7.237,37.001,5,34.762,5,31.975 V31.85c0-2.68,2.173-4.851,4.852-4.851L13,26.999c1.657,0,3-1.343,3-2.999v0c0-1.657-1.343-3-3-3h-3c-1.657,0-3-1.343-3-3v-1 c0-1.657,1.343-3,3-3h14c1.657,0,3-1.343,3-3v0c0-1.657-1.343-3-3-3h-4c-2.209,0-4-1.791-4-4v0c0-2.209,1.791-4,4-4l32,0 c2.209,0,4,1.791,4,4v0c0,2.209-1.791,4-4,4h-8c-2.209,0-4,1.791-4,4v0c0,2.209,1.791,4,4,4h10.5c2.485,0,4.5,2.015,4.5,4.5v0 C59,22.985,56.985,25,54.5,25z"/><linearGradient id="K5EJoz8rMMSTeQnHnlwMIb" x1="32" x2="32" y1="52" y2="12" gradientUnits="userSpaceOnUse" spreadMethod="reflect"><stop offset="0" stop-color="#53d1f0"/><stop offset=".323" stop-color="#5ed5f2"/><stop offset=".896" stop-color="#7de0f9"/><stop offset="1" stop-color="#83e2fa"/></linearGradient><path fill="url(#K5EJoz8rMMSTeQnHnlwMIb)" d="M54,12H10c-3.314,0-6,2.686-6,6v28c0,3.314,2.686,6,6,6h44c3.314,0,6-2.686,6-6V18 C60,14.686,57.314,12,54,12z"/><linearGradient id="K5EJoz8rMMSTeQnHnlwMIc" x1="32" x2="32" y1="41" y2="55" gradientUnits="userSpaceOnUse" spreadMethod="reflect"><stop offset="0" stop-color="#42d778"/><stop offset=".996" stop-color="#34b171"/><stop offset="1" stop-color="#34b171"/></linearGradient><path fill="url(#K5EJoz8rMMSTeQnHnlwMIc)" d="M4,38v8c0,3.314,2.686,6,6,6h44c3.314,0,6-2.686,6-6v-8H4z"/><linearGradient id="K5EJoz8rMMSTeQnHnlwMId" x1="-318" x2="-318" y1="38" y2="12" gradientTransform="matrix(-1 0 0 1 -297 0)" gradientUnits="userSpaceOnUse" spreadMethod="reflect"><stop offset="0" stop-color="#88e2f8"/><stop offset=".851" stop-color="#93e6fa"/><stop offset="1" stop-color="#96e7fb"/></linearGradient><path fill="url(#K5EJoz8rMMSTeQnHnlwMId)" d="M7.97,24.03C8.61,24.66,9,25.54,9,26.5C9,28.42,7.43,30,5.5,30H4v8h24.5 c1.933,0,3.5-1.567,3.5-3.5v0c0-1.933-1.567-3.5-3.5-3.5h-1c-0.96,0-1.84-0.39-2.47-1.03c-0.611-0.601-0.994-1.43-1.028-2.339 C23.928,25.635,25.699,24,27.696,24l7.175,0c1.292,0,2.513-0.759,2.948-1.975c0.425-1.187,0.061-2.384-0.7-3.145 C36.58,18.34,35.82,18,35,18h-3c-1.1,0-2.1-0.45-2.82-1.18C28.45,16.1,28,15.1,28,14c0-0.73,0.2-1.41,0.55-2H10 c-3.314,0-6,2.686-6,6v5h1.5C6.46,23,7.34,23.39,7.97,24.03z"/><linearGradient id="K5EJoz8rMMSTeQnHnlwMIe" x1="26.583" x2="26.583" y1="52" y2="33" gradientUnits="userSpaceOnUse" spreadMethod="reflect"><stop offset="0" stop-color="#ff8b67"/><stop offset=".847" stop-color="#ffa76a"/><stop offset="1" stop-color="#ffad6b"/><stop offset="1" stop-color="#ffad6b"/></linearGradient><path fill="url(#K5EJoz8rMMSTeQnHnlwMIe)" d="M40.829,50.497C39.937,51.422,38.673,52,37.285,52H12.337 c1.933-2.941,7.592-11.797,11.103-17.298c1.404-2.206,4.568-2.28,6.08-0.149L40.829,50.497z"/><linearGradient id="K5EJoz8rMMSTeQnHnlwMIf" x1="20.669" x2="20.669" y1="52" y2="33.026" gradientUnits="userSpaceOnUse" spreadMethod="reflect"><stop offset="0" stop-color="#ff9757"/><stop offset="1" stop-color="#ffb65b"/><stop offset="1" stop-color="#ffb65b"/></linearGradient><path fill="url(#K5EJoz8rMMSTeQnHnlwMIf)" d="M18.73,48.73C19.18,48.28,19.81,48,20.5,48h5.89c0.79-1.21,1.66-2.57,2.58-4H24.5 c-1.38,0-2.5-1.12-2.5-2.5c0-0.69,0.28-1.32,0.73-1.77C23.18,39.28,23.81,39,24.5,39H26c0.82,0,1.58-0.34,2.12-0.88 C28.66,37.58,29,36.82,29,36c0-1.561-1.211-2.846-2.737-2.974c-1.094,0.079-2.157,0.63-2.823,1.675 C19.929,40.203,14.27,49.059,12.337,52H18.5c-0.31-0.41-0.5-0.94-0.5-1.5C18,49.81,18.28,49.18,18.73,48.73z"/><linearGradient id="K5EJoz8rMMSTeQnHnlwMIg" x1="41.045" x2="41.045" y1="52" y2="29" gradientUnits="userSpaceOnUse" spreadMethod="reflect"><stop offset="0" stop-color="#ffc96a"/><stop offset=".004" stop-color="#ffc96a"/><stop offset=".578" stop-color="#ffc887"/><stop offset="1" stop-color="#ffc797"/><stop offset="1" stop-color="#ffc797"/></linearGradient><path fill="url(#K5EJoz8rMMSTeQnHnlwMIg)" d="M58.29,50.18C57.21,51.3,55.68,52,54,52H23.8c2.34-3.56,9.19-14.28,13.44-20.94 c1.7-2.67,5.53-2.76,7.36-0.18L58.29,50.18z"/><linearGradient id="K5EJoz8rMMSTeQnHnlwMIh" x1="50.145" x2="50.145" y1="52" y2="32" gradientUnits="userSpaceOnUse" spreadMethod="reflect"><stop offset="0" stop-color="#ffc050"/><stop offset=".004" stop-color="#ffc050"/><stop offset=".641" stop-color="#ffbe75"/><stop offset="1" stop-color="#ffbd85"/><stop offset="1" stop-color="#ffbd85"/></linearGradient><path fill="url(#K5EJoz8rMMSTeQnHnlwMIh)" d="M58.29,50.18C57.21,51.3,55.68,52,54,52h-9c-1.1,0-2-0.9-2-2c0-0.55,0.22-1.05,0.59-1.41 C43.95,48.22,44.45,48,45,48h2c1.1,0,2-0.9,2-2c0-0.55-0.22-1.05-0.59-1.41C48.05,44.22,47.55,44,47,44h-3c-1.1,0-2-0.9-2-2 c0-0.55,0.22-1.05,0.59-1.41C42.95,40.22,43.45,40,44,40h1c1.1,0,2-0.9,2-2c0-0.55-0.22-1.05-0.59-1.41C46.05,36.22,45.55,36,45,36 c-1.1,0-2-0.9-2-2c0-0.55,0.22-1.05,0.59-1.41C43.95,32.22,44.45,32,45,32h0.39l2.84,4l2.84,4l2.84,4l2.83,4L58.29,50.18z"/><linearGradient id="K5EJoz8rMMSTeQnHnlwMIi" x1="16.5" x2="16.5" y1="27" y2="18" gradientUnits="userSpaceOnUse" spreadMethod="reflect"><stop offset=".018" stop-color="#fff8e5"/><stop offset="1" stop-color="#fffef8"/></linearGradient><path fill="url(#K5EJoz8rMMSTeQnHnlwMIi)" d="M16.5 18A4.5 4.5 0 1 0 16.5 27A4.5 4.5 0 1 0 16.5 18Z"/></svg>