<?xml version="1.0" encoding="iso-8859-1"?>
<!-- Generator: Adobe Illustrator 19.0.0, SVG Export Plug-In . SVG Version: 6.00 Build 0)  -->
<svg version="1.1" id="Capa_1" xmlns="http://www.w3.org/2000/svg" xmlns:xlink="http://www.w3.org/1999/xlink" x="0px" y="0px"
	 viewBox="0 0 512.001 512.001" style="enable-background:new 0 0 512.001 512.001;" xml:space="preserve">
<path style="fill:#17ACE8;" d="M425.04,303.6c-0.3,0-0.3,0-0.601-0.3l-86.7-25.201c-1.501-0.298-2.699-0.599-4.497-0.599
	l-77.102,0.899l-84.302,0.901c-1.498,0-2.699,0.3-4.197,0.599L87.24,303.6c-24.298,8.101-38.698,33.9-32.399,57.9L81.237,500
	c1.502,6.899,9.903,12,17.103,12h317.703c7.2,0,13.198-5.101,14.7-12.001l26.396-137.601C463.437,337.5,449.338,311.7,425.04,303.6z
	"/>
<path style="fill:#1689FC;" d="M457.138,362.399L430.742,500c-1.501,6.899-7.5,12.001-14.7,12.001H256.14V278.399l77.102-0.899
	c1.798,0,2.996,0.3,4.497,0.599l86.7,25.201c0.3,0.3,0.3,0.3,0.601,0.3C449.338,311.7,463.437,337.5,457.138,362.399z"/>
<path style="fill:#CAE8F9;" d="M374.638,306.599l-0.3,0.601l-60.601,91.199c-5.398,7.8-16.498,9-23.097,2.1l-34.501-34.2
	l-34.501,34.2c-6.599,6.601-17.699,5.7-23.097-2.1l-59.7-89.7c-4.504-4.799-5.702-11.999,1.798-19.499l45.897-44.101
	c7.2-6.599,18.003-5.099,23.101,2.401l46.501,70.199l46.501-70.199c5.098-7.5,16.201-9,23.101-2.401l45.897,44.101
	C376.14,293.699,377.341,300.599,374.638,306.599z"/>
<g>
	<path style="fill:#B7E0F6;" d="M376.14,452h-30c-19.773,0-19.854-30,0-30h30C395.913,422,395.994,452,376.14,452z"/>
	<path style="fill:#B7E0F6;" d="M374.638,306.599l-0.3,0.601l-60.601,91.199c-5.398,7.8-16.498,9-23.097,2.1l-34.501-34.2v-48.6
		L302.64,247.5c5.098-7.5,16.201-9,23.101-2.401l45.897,44.101C376.14,293.699,377.341,300.599,374.638,306.599z"/>
</g>
<path style="fill:#FEDBAB;" d="M305.34,221.7c-13.502,11.699-31.201,17.699-49.2,17.699s-35.698-6-49.2-17.699
	c-9.598-8.701-24.699-1.802-24.699,11.1v23.099c0,3.001,0.701,5.7,2.199,8.401l59.103,89.099c2.996,4.2,7.5,6.601,12.598,6.601
	c5.098,0,9.602-2.401,12.598-6.601L327.84,264.3c1.498-2.701,2.399-5.4,2.399-8.401V232.8
	C330.239,219.899,314.939,212.999,305.34,221.7z"/>
<path style="fill:#FEC478;" d="M330.239,232.8v23.099c0,3.001-0.901,5.7-2.399,8.401l-59.103,89.099
	c-2.996,4.2-7.5,6.601-12.598,6.601V239.399c17.999,0,35.698-6,49.2-17.699C314.939,212.999,330.239,219.899,330.239,232.8z"/>
<path style="fill:#FEDBAB;" d="M347.041,52.5c-4.501-8.101-18.9-12.301-25.803,0C307.739,75.599,282.84,90,256.14,90h-90
	c-8.401,0-15,6.599-15,15v60c0,30.3,13.198,59.099,35.999,78.9c18.904,16.8,43.502,26.1,69.001,26.1s50.098-9.3,69.001-25.8
	c22.8-20.101,35.999-48.9,35.999-79.2v-60C361.14,86.7,356.342,68.699,347.041,52.5z"/>
<path style="fill:#FEC478;" d="M361.14,105v60c0,30.3-13.198,59.099-35.999,79.2c-18.904,16.5-43.502,25.8-69.001,25.8V90
	c26.7,0,51.599-14.401,65.098-37.5c6.903-12.301,21.302-8.101,25.803,0C356.342,68.699,361.14,86.7,361.14,105z"/>
<path style="fill:#1689FC;" d="M256.14,0c-57.898,0-105,47.1-105,105v15h105c37.5,0,72.297-20.101,90.901-52.5l4.197-7.5
	C330.84,20.099,294.24,0,256.14,0z"/>
<path style="fill:#136EF1;" d="M351.238,60l-4.197,7.5C328.437,99.899,293.64,120,256.14,120V0C294.24,0,330.84,20.099,351.238,60z"
	/>
<g>
</g>
<g>
</g>
<g>
</g>
<g>
</g>
<g>
</g>
<g>
</g>
<g>
</g>
<g>
</g>
<g>
</g>
<g>
</g>
<g>
</g>
<g>
</g>
<g>
</g>
<g>
</g>
<g>
</g>
</svg>
