<!-- <div>Icônes conçues par <a href="https://www.freepik.com" title="Freepik">Freepik</a> from <a href="https://www.flaticon.com/fr/" title="Flaticon">www.flaticon.com</a></div> -->
<svg enable-background="new 0 0 512 512" viewBox="0 0 512 512" xmlns="http://www.w3.org/2000/svg">
<path d="m406 451h75v-105l-37.5-30-37.5 30z" fill="#76e2f8"/>
<path d="m481 166-31.373-30-43.627 30v90l45.528 30 29.472-30z" fill="#fed843"/>
<path d="m406 61h75v105h-75z" fill="#fabe2c"/>
<path d="m406 256h75v90h-75z" fill="#3aaaff"/>
<path d="m31 0v512h390v-512z" fill="#ff6c6c"/>
<path d="m226 0h195v512h-195z" fill="#e63950"/>
<path d="m361 256c0 46.5-23.699 87.9-60 112.2h-150c-36.301-24.3-60-65.7-60-112.2 0-74.401 60.601-135 135-135s135 60.599 135 135z" fill="#edf5ff"/>
<path d="m361 256c0 46.5-23.699 87.9-60 112.2h-75v-247.2c74.399 0 135 60.599 135 135z" fill="#d5e8fe"/>
<path d="m226 271c-41.4 0-75 33.6-75 75v22.2c9.3 6.301 19.2 11.4 30 15 14.099 5.099 29.099 7.8 45 7.8s30.901-2.701 45-7.8c10.8-3.6 20.7-8.699 30-15v-22.2c0-41.4-33.6-75-75-75z" fill="#fabe2c"/>
<path d="m226 181c-24.901 0-45 20.099-45 45 0 24.899 20.099 45 45 45s45-20.101 45-45c0-24.901-20.099-45-45-45z" fill="#fabe2c"/><g fill="#ff9100">
<path d="m271 226c0 24.899-20.099 45-45 45v-90c24.901 0 45 20.099 45 45z"/>
<path d="m301 346v22.2c-9.3 6.301-19.2 11.4-30 15-14.099 5.099-29.099 7.8-45 7.8v-120c41.4 0 75 33.6 75 75z"/></g></svg>
