<?xml version="1.0" encoding="iso-8859-1"?>
<!-- Generator: Adobe Illustrator 19.0.0, SVG Export Plug-In . SVG Version: 6.00 Build 0)  -->
<svg version="1.1" id="Capa_1" xmlns="http://www.w3.org/2000/svg" xmlns:xlink="http://www.w3.org/1999/xlink" x="0px" y="0px"
	 viewBox="0 0 512 512" style="enable-background:new 0 0 512 512;" xml:space="preserve">
<path style="fill:#CAE8F9;" d="M511.555,18.701l-130.856,470.5c-2.996,11.7-18.296,15-26.096,5.7L228.299,341.602l-28.798-28.801
	l-29.103-29.099L17.103,157.401c-9.302-7.8-6.002-23.101,5.698-26.1l470.458-130.9c5.087-1.022,10.87-0.214,14.399,3.9
	C511.743,7.875,512.69,13.591,511.555,18.701z"/>
<path style="fill:#B7E0F6;" d="M199.501,312.801l28.799,28.801l126.302,153.3c7.8,9.3,23.101,6,26.096-5.7L511.555,18.701
	c1.136-5.111,0.189-10.826-3.896-14.399L199.329,312.63L199.501,312.801z"/>
<path style="fill:#17ACE8;" d="M162.598,277.101L135.901,357.2c-1.802,5.7-0.3,11.7,3.6,15.3c3.6,3.9,9.298,5.7,15.297,3.6
	l80.405-26.7c0.297-0.899,0.297-1.199,0.297-1.199L507.658,4.302L162.598,277.101z"/>
<path style="fill:#1DE8F1;" d="M110.398,401.602c-5.398-5.101-14.099-7.202-21.299,0l-20.998,21.299c-6.899,6.901-5.398,15.901,0,21
	c5.398,5.4,14.099,7.2,20.999,0l21.299-21.301C117.297,415.701,115.799,407.001,110.398,401.602z M46.803,465.202
	c-5.402-5.4-14.399-7.2-21.302,0L4.502,486.5c-6.002,5.7-6.002,15.3,0,21c5.702,6,15.297,6,20.999,0l21.302-21
	C54.001,479.601,52.201,470.601,46.803,465.202z"/>
<path style="fill:#1689FC;" d="M507.658,4.302L235.499,348.201c0,0,0,0.3-0.297,1.199l-80.405,26.7
	c-5.999,2.1-11.697,0.3-15.297-3.6L507.658,4.302z"/>
<g>
</g>
<g>
</g>
<g>
</g>
<g>
</g>
<g>
</g>
<g>
</g>
<g>
</g>
<g>
</g>
<g>
</g>
<g>
</g>
<g>
</g>
<g>
</g>
<g>
</g>
<g>
</g>
<g>
</g>
</svg>
