<svg id="Capa_1" enable-background="new 0 0 512 512" height="512" viewBox="0 0 512 512" width="512" xmlns="http://www.w3.org/2000/svg"><g><path d="m45 312c-13.294 0-25.714 7.992-34.076 21.927-7.044 11.741-10.924 27.038-10.924 43.073s3.88 31.332 10.924 43.073c8.362 13.935 20.782 21.927 34.076 21.927h422v-130z" fill="#beebfa"/><path d="m256 312h211v130h-211z" fill="#9ee2f8"/><path d="m256 270c-36.179 0-70.391-4.396-96.335-12.379-40.222-12.376-48.665-30.009-48.665-42.621v-87.273c0-8.284 6.716-15 15-15h260c8.284 0 15 6.716 15 15v87.273c0 12.612-8.443 30.245-48.665 42.621-25.944 7.983-60.156 12.379-96.335 12.379z" fill="#453d83"/><path d="m386 112.727h-130v157.273c36.179 0 70.391-4.396 96.335-12.379 40.222-12.376 48.665-30.009 48.665-42.621v-87.273c0-8.284-6.716-15-15-15z" fill="#2d2755"/><path d="m261.126.903c-3.311-1.204-6.941-1.204-10.252 0l-220 80c-13.165 4.787-13.165 23.406 0 28.194l220 80c3.311 1.204 6.941 1.204 10.252 0l220-80v-28.194z" fill="#5f55af"/><path d="m261.126.903c-1.655-.602-3.391-.903-5.126-.903v190c1.735 0 3.471-.301 5.126-.903l220-80v-28.194z" fill="#453d83"/><path d="m467 442c-13.294 0-25.714-7.992-34.076-21.927-7.044-11.741-10.924-27.038-10.924-43.073s3.88-31.332 10.924-43.073c8.362-13.935 20.782-21.927 34.076-21.927s25.714 7.992 34.076 21.927c7.044 11.741 10.924 27.038 10.924 43.073s-3.88 31.332-10.924 43.073c-8.362 13.935-20.782 21.927-34.076 21.927z" fill="#87c0ed"/><path d="m476 240c-8.284 0-15-6.716-15-15v-115h-205c-8.284 0-15-6.716-15-15s6.716-15 15-15h220c8.284 0 15 6.716 15 15v130c0 8.284-6.716 15-15 15z" fill="#fff79f"/><path d="m461 110v115c0 8.284 6.716 15 15 15s15-6.716 15-15v-130c0-8.284-6.716-15-15-15h-220v30z" fill="#ffde55"/><path d="m273.757 511.219-17.757-5.919-17.757 5.919c-9.713 3.238-19.743-3.992-19.743-14.23v-68.773h75v68.773c0 10.238-10.03 17.467-19.743 14.23z" fill="#ff9f22"/><path d="m256 505.3 17.757 5.919c9.713 3.238 19.743-3.992 19.743-14.23v-68.773h-37.5z" fill="#ff7c48"/><circle cx="256" cy="392" fill="#ffde55" r="45"/><path d="m301 392c0-24.853-20.147-45-45-45v90c24.853 0 45-20.147 45-45z" fill="#ffcd00"/><path d="m256 452c-33.084 0-60-26.916-60-60s26.916-60 60-60 60 26.916 60 60-26.916 60-60 60zm0-90c-16.542 0-30 13.458-30 30s13.458 30 30 30 30-13.458 30-30-13.458-30-30-30z" fill="#fff79f"/><path d="m286 392c0 16.542-13.458 30-30 30v30c33.084 0 60-26.916 60-60s-26.916-60-60-60v30c16.542 0 30 13.458 30 30z" fill="#ffde55"/></g></svg>