<svg id="Capa_1" enable-background="new 0 0 512 512" height="512" viewBox="0 0 512 512" width="512" xmlns="http://www.w3.org/2000/svg"><g><path d="m312 0h-297c-8.284 0-15 6.716-15 15v482c0 8.284 6.716 15 15 15h357c8.284 0 15-6.716 15-15v-422z" fill="#beebfa"/><path d="m193.5 0v512h178.5c8.284 0 15-6.716 15-15v-422l-75-75z" fill="#9ee2f8"/><path d="m312 0v60c0 8.284 6.716 15 15 15h60c0-41.355-33.645-75-75-75z" fill="#87c0ed"/><g><path d="m262 387v90c0 19.33 15.67 35 35 35h180c19.33 0 35-15.67 35-35v-90c0-8.284-6.716-15-15-15h-220c-8.284 0-15 6.716-15 15z" fill="#ff7c48"/><path d="m497 372h-110v140h90c19.33 0 35-15.67 35-35v-90c0-8.284-6.716-15-15-15z" fill="#ff4c04"/><path d="m437 342c-8.284 0-15-6.716-15-15v-30c0-2.757-2.243-5-5-5h-60c-2.757 0-5 2.243-5 5v30c0 8.284-6.716 15-15 15s-15-6.716-15-15v-30c0-19.299 15.701-35 35-35h60c19.299 0 35 15.701 35 35v30c0 8.284-6.716 15-15 15z" fill="#5f55af"/><path d="m417 262h-30v30h30c2.757 0 5 2.243 5 5v30c0 8.284 6.716 15 15 15s15-6.716 15-15v-30c0-19.299-15.701-35-35-35z" fill="#453d83"/><path d="m452 432c-8.284 0-15-6.716-15-15v-45h30v45c0 8.284-6.716 15-15 15z" fill="#ffde55"/><path d="m322 432c-8.284 0-15-6.716-15-15v-45h30v45c0 8.284-6.716 15-15 15z" fill="#fff79f"/><path d="m512 347c0-19.299-15.701-35-35-35h-180c-19.299 0-35 15.701-35 35v40h250z" fill="#ff9f22"/><path d="m477 312h-90v75h125v-40c0-19.299-15.701-35-35-35z" fill="#ff7c48"/></g><g fill="#9ee2f8"><g><path d="m93.5 331h-20c-8.284 0-15-6.716-15-15s6.716-15 15-15h20c8.284 0 15 6.716 15 15s-6.716 15-15 15z"/><path d="m223.5 331h-70c-8.284 0-15-6.716-15-15s6.716-15 15-15h70c8.284 0 15 6.716 15 15s-6.716 15-15 15z"/></g><g><path d="m93.5 391h-20c-8.284 0-15-6.716-15-15s6.716-15 15-15h20c8.284 0 15 6.716 15 15s-6.716 15-15 15z"/><path d="m223.5 391h-70c-8.284 0-15-6.716-15-15s6.716-15 15-15h70c8.284 0 15 6.716 15 15s-6.716 15-15 15z"/></g><path d="m93.5 451h-20c-8.284 0-15-6.716-15-15s6.716-15 15-15h20c8.284 0 15 6.716 15 15s-6.716 15-15 15z"/><path d="m223.5 451h-70c-8.284 0-15-6.716-15-15s6.716-15 15-15h70c8.284 0 15 6.716 15 15s-6.716 15-15 15z"/></g><path d="m223.5 301h-30v30h30c8.284 0 15-6.716 15-15s-6.716-15-15-15z" fill="#87c0ed"/><path d="m223.5 361h-30v30h30c8.284 0 15-6.716 15-15s-6.716-15-15-15z" fill="#87c0ed"/><g><path d="m273.5 271h-160c-8.284 0-15-6.716-15-15v-8.789c0-52.302 41.763-95.7 94.063-96.207 52.811-.512 95.937 42.3 95.937 94.995v10c0 8.285-6.716 15.001-15 15.001z" fill="#5f55af"/><path d="m193.5 151.007v119.993h80c8.284 0 15-6.716 15-15v-10c0-52.383-42.617-94.992-95-94.993z" fill="#453d83"/><path d="m193.5 176c-31.705 0-57.5-25.795-57.5-57.5s25.795-57.5 57.5-57.5 57.5 25.795 57.5 57.5-25.795 57.5-57.5 57.5z" fill="#ffe4c2"/><path d="m193.5 61v115c31.706 0 57.5-25.794 57.5-57.5s-25.794-57.5-57.5-57.5z" fill="#f2d1a5"/><path d="m223.5 421h-30v30h30c8.284 0 15-6.716 15-15s-6.716-15-15-15z" fill="#87c0ed"/></g></g></svg>