<svg id="Capa_1" enable-background="new 0 0 512 512" height="512" viewBox="0 0 512 512" width="512" xmlns="http://www.w3.org/2000/svg"><g><path d="m340.64 114.636c-2.468-8.638-5.909-16.863-10.188-24.558l15.834-15.834c3.905-3.905 3.905-10.237 0-14.142l-31.37-31.369c-3.905-3.905-10.237-3.905-14.142 0l-15.834 15.834c-7.696-4.28-15.921-7.721-24.559-10.188v-24.379c0-5.523-4.477-10-10-10h-44.364c-5.523 0-10 4.477-10 10v24.378c-8.638 2.468-16.863 5.909-24.559 10.188l-15.834-15.834c-3.905-3.905-10.237-3.905-14.142 0l-31.37 31.369c-3.905 3.905-3.905 10.237 0 14.142l15.834 15.834c-4.279 7.696-7.72 15.921-10.188 24.558h-22.376c-5.523 0-10 4.477-10 10v64.365h97.595c-8.595-10.975-12.776-24.02-12.776-37 0-33.067 26.888-59.972 59.949-60 32.005-.027 58.727 25.572 60.003 57.552.571 14.32-3.878 28.171-12.719 39.448h97.586v-64.364c0-5.523-4.477-10-10-10z" fill="#f47160"/><path d="m373.02 124.64v64.36h-97.59c8.84-11.28 13.29-25.13 12.72-39.45-1.27-31.96-27.97-57.56-59.95-57.55v-92h22.18c5.52 0 10 4.48 10 10v24.38c8.64 2.47 16.87 5.91 24.56 10.19l15.83-15.84c3.91-3.9 10.24-3.9 14.15 0l31.37 31.37c3.9 3.91 3.9 10.24 0 14.14l-15.84 15.84c4.28 7.69 7.72 15.92 10.19 24.56h22.38c5.52 0 10 4.47 10 10z" fill="#fc5832"/><g><path d="m458.28 331.801h-45.669v73.25c0 5.523-4.477 10-10 10h-52.174v86.949c0 5.523-4.477 10-10 10h-160.199c-5.523 0-10-4.477-10-10v-93.493c-95.682-27.068-148.954-129.035-117.472-222.659 1.373-4.084 5.188-6.848 9.496-6.848h331.863c4.33 0 8.134 2.798 9.511 6.903 5.235 15.613 8.31 32.219 8.87 49.464l54.087 80.874c4.443 6.645-.319 15.56-8.313 15.56z" fill="#ffddce"/></g><g><path d="m458.28 331.8h-45.67v73.25c0 5.52-4.48 10-10 10h-52.17v86.95c0 5.52-4.48 10-10 10h-112.24v-333h165.92c4.34 0 8.14 2.8 9.52 6.9 5.23 15.62 8.31 32.22 8.87 49.47l54.08 80.87c4.45 6.65-.32 15.56-8.31 15.56z" fill="#ffccbd"/></g></g></svg>