<svg id="Capa_1" enable-background="new 0 0 512 512" height="512" viewBox="0 0 512 512" width="512" xmlns="http://www.w3.org/2000/svg" xmlns:xlink="http://www.w3.org/1999/xlink"><linearGradient id="SVGID_1_" gradientUnits="userSpaceOnUse" x1="256" x2="256" y1="512" y2="0"><stop offset="0" stop-color="#addcff"/><stop offset=".5028" stop-color="#eaf6ff"/><stop offset="1" stop-color="#eaf6ff"/></linearGradient><linearGradient id="SVGID_2_" gradientUnits="userSpaceOnUse" x1="396.581" x2="113.882" y1="115.418" y2="398.117"><stop offset="0" stop-color="#5558ff"/><stop offset="1" stop-color="#00c0ff"/></linearGradient><g><g><circle cx="256" cy="256" fill="url(#SVGID_1_)" r="256"/></g><g><g><path d="m337.401 299.717-125.118-125.118c4.688-17.745.297-37.388-13.616-51.301-12.013-12.013-29.721-18.409-47.156-18.296-7.871.05-11.788 9.598-6.224 15.162l21.976 21.976v25.124h-25.122l-21.977-21.977c-5.566-5.566-15.111-1.645-15.162 6.225-.113 17.435 6.283 35.142 18.297 47.156 13.913 13.914 33.555 18.304 51.3 13.615l125.118 125.119c-4.688 17.745-.297 37.387 13.616 51.3 12.014 12.014 29.72 18.409 47.156 18.296 7.869-.051 11.789-9.597 6.224-15.163l-21.976-21.976v-25.123h25.122l21.976 21.975c5.564 5.565 15.112 1.647 15.163-6.223.112-17.436-6.283-35.143-18.297-47.156-13.913-13.913-33.554-18.304-51.3-13.615zm59.19-134.067c6.714-6.714 10.409-15.631 10.409-25.12 0-19.595-15.943-35.53-35.53-35.53-9.49 0-18.407 3.695-25.12 10.409l-84.073 84.073 50.243 50.239zm-229.865 167.056h-21.443c-2.862 0-5.569 1.388-7.234 3.721l-31.4 43.969c-2.516 3.53-2.117 8.371.954 11.441l12.56 12.56c3.067 3.067 7.892 3.475 11.45.945l43.961-31.4c2.325-1.666 3.713-4.354 3.713-7.226v-21.451l51.595-51.588-12.56-12.56z" fill="url(#SVGID_2_)"/></g></g></g></svg>